<svg width="17" height="17" viewBox="0 0 17 17" fill="none" xmlns="http://www.w3.org/2000/svg">
<path fill-rule="evenodd" clip-rule="evenodd" d="M9.06262 1.36736L10.8908 5.24989C10.9823 5.44572 11.1592 5.58239 11.3644 5.61406L15.4572 6.23823C15.623 6.26156 15.7722 6.35323 15.874 6.49323C16.065 6.75573 16.0358 7.1274 15.8069 7.35323L12.8405 10.3816C12.6897 10.5316 12.6226 10.7516 12.6621 10.9658L13.3725 15.2391C13.4223 15.5933 13.1933 15.925 12.8579 15.9825C12.7189 16.005 12.5768 15.9816 12.4506 15.9158L8.80529 13.8983C8.62216 13.7933 8.40272 13.7933 8.21958 13.8983L4.54748 15.9266C4.24042 16.0916 3.86469 15.9691 3.69734 15.6516C3.63341 15.5233 3.6113 15.3775 3.63341 15.235L4.34383 10.9616C4.37935 10.7483 4.31225 10.5291 4.16543 10.3783L1.18323 7.35073C0.94011 7.09573 0.938532 6.68073 1.18087 6.42406C1.18165 6.42323 1.18244 6.42156 1.18323 6.42073C1.28348 6.32489 1.40662 6.26073 1.54002 6.23573L5.63364 5.61156C5.83809 5.57739 6.01411 5.44239 6.10726 5.24655L7.93384 1.36736C8.00725 1.20986 8.13749 1.08903 8.29536 1.03403C8.45402 0.978192 8.62768 0.991525 8.77687 1.07069C8.89922 1.13486 8.99947 1.23903 9.06262 1.36736Z" fill="#F8D456"/>
</svg>
